<svg xmlns="http://www.w3.org/2000/svg" width="80" height="23" viewBox="0 0 80 23" role="img" aria-label="Adzuna">
  <rect width="80" height="23" fill="none"/>
  <path fill="#279b37" d="M4.2 17.2V6.4h3.1c2.4 0 3.9 1.3 3.9 3.4 0 1.5-.8 2.6-2.1 3l2.5 4.4h-2.5l-2.2-4h-1.2v4H4.2zm2-6h1c1.2 0 1.8-.5 1.8-1.4s-.6-1.4-1.8-1.4h-1v2.8zM16.8 17.4c-2.5 0-4.2-1.8-4.2-4.5s1.7-4.5 4.2-4.5 4.2 1.8 4.2 4.5-1.7 4.5-4.2 4.5zm0-2c1.3 0 2.1-1 2.1-2.5s-.8-2.5-2.1-2.5-2.1 1-2.1 2.5.8 2.5 2.1 2.5zM26.2 17.2l3.5-10.8h2.3l3.5 10.8h-2.2l-.7-2.3h-3.7l-.7 2.3h-2zm4.1-4.2l-1.2-3.8-1.2 3.8h2.4zM38.4 17.2V6.4h3.8c2.5 0 4 1.4 4 3.7 0 2.3-1.5 3.7-4 3.7h-1.8v3.4h-2zm2-5.4h1.6c1.3 0 2-.6 2-1.6s-.7-1.6-2-1.6h-1.6v3.2zM48.8 17.2V6.4h5.6v1.8h-3.6v2.6h3.2v1.8h-3.2v2.8h3.8v1.8H48.8zM57.2 17.2V6.4h3.1c2.4 0 3.9 1.3 3.9 3.4 0 1.5-.8 2.6-2.1 3l2.5 4.4h-2.5l-2.2-4h-1.2v4h-2zm2-6h1c1.2 0 1.8-.5 1.8-1.4s-.6-1.4-1.8-1.4h-1v2.8zM68.8 17.2l2.1-10.8H73l2.1 10.8h-2l-.4-2.5h-2.5l-.4 2.5h-2zm2.8-4.3l-.8-4.7-.8 4.7h1.6z"/>
</svg>
